<?xml version="1.0" encoding="utf-8"?>
<!-- Generator: Adobe Illustrator 28.3.0, SVG Export Plug-In . SVG Version: 6.00 Build 0)  -->
<svg version="1.1" id="Layer_1" xmlns="http://www.w3.org/2000/svg" xmlns:xlink="http://www.w3.org/1999/xlink" x="0px" y="0px"
	 viewBox="0 0 142.47 47.95" style="enable-background:new 0 0 142.47 47.95;" xml:space="preserve">
<style type="text/css">
	.st0{fill:#2C2C2C;}
</style>
<g>
	<path class="st0" d="M13.55,35.73c-0.37-0.66-0.41-1.62,0.45-2.11c0.63-0.35,1.13-0.1,1.39,0.36c0.3,0.53,0.05,0.87,0.26,1.25
		c0.2,0.36,0.69,0.57,1.31,0.22c0.67-0.38,0.77-1.09,0.14-2.21l-3.46-6.19l-0.71,0.4c-0.08,0.05-0.17,0.02-0.22-0.06l-0.48-0.87
		c-0.05-0.08-0.02-0.17,0.06-0.22l3.5-1.96c0.08-0.05,0.17-0.02,0.22,0.06l0.48,0.87c0.05,0.08,0.02,0.17-0.06,0.22l-0.7,0.39
		l3.37,6.02c0.86,1.54,0.63,3.39-1.49,4.58C15.9,37.44,14.31,37.08,13.55,35.73z"/>
	<path class="st0" d="M28.87,26.98c0.05-0.6,0.78-0.69,0.98-0.24l1.2,2.72c0.04,0.09,0.01,0.17-0.08,0.21l-7.67,3.39
		c-0.09,0.04-0.17,0.01-0.21-0.08l-0.4-0.91c-0.04-0.09-0.01-0.17,0.08-0.21l0.73-0.32l-3.46-7.85l-0.73,0.32
		c-0.09,0.04-0.17,0.01-0.21-0.08l-0.4-0.91c-0.04-0.09-0.01-0.17,0.08-0.21l7.25-3.2c0.09-0.04,0.17-0.01,0.21,0.08l1.08,2.44
		c0.19,0.44-0.39,0.87-0.83,0.58l-0.85-0.58c-0.67-0.46-1.11-0.42-2.14,0.03l-1.26,0.56l1.36,3.09l0.51-0.23
		c0.51-0.23,0.73-0.37,0.76-0.93l0.06-0.62c0.04-0.59,0.76-0.7,0.93-0.31l1.36,3.09c0.2,0.45-0.38,0.83-0.83,0.49l-0.5-0.38
		c-0.5-0.38-0.73-0.36-1.25-0.13l-0.51,0.23l1.56,3.54l1.55-0.68c1.05-0.47,1.35-0.77,1.47-1.74L28.87,26.98z"/>
	<path class="st0" d="M36.41,17.23l-0.3-0.95c-0.03-0.09,0.01-0.17,0.1-0.2l2.93-0.93c0.09-0.03,0.17,0.01,0.2,0.1l0.3,0.95
		c0.03,0.09-0.01,0.17-0.1,0.2l-0.76,0.24l2.94,9.27c0.03,0.09-0.01,0.17-0.1,0.2l-0.93,0.29c-0.08,0.02-0.15,0-0.22-0.05
		l-7.62-6.29L35,26.85l0.76-0.24c0.09-0.03,0.17,0.01,0.2,0.1l0.3,0.95c0.03,0.09-0.01,0.17-0.1,0.2l-2.93,0.93
		c-0.09,0.03-0.17-0.01-0.2-0.1l-0.3-0.95c-0.03-0.09,0.01-0.17,0.1-0.2l0.76-0.24L31,19.12l-0.76,0.24
		c-0.09,0.03-0.17-0.01-0.2-0.1l-0.3-0.95c-0.03-0.09,0.01-0.17,0.1-0.2l2.84-0.9c0.08-0.02,0.15,0,0.22,0.05l6.15,5.08l-1.67-5.25
		l-0.76,0.24C36.52,17.36,36.44,17.32,36.41,17.23z"/>
	<path class="st0" d="M49.02,14.19l-0.19-0.97c-0.02-0.09,0.03-0.17,0.13-0.19l3.01-0.59c0.09-0.02,0.17,0.03,0.19,0.13l0.19,0.97
		c0.02,0.09-0.03,0.17-0.13,0.19l-0.79,0.15l1.88,9.55c0.02,0.09-0.03,0.17-0.13,0.19l-0.96,0.19c-0.08,0.02-0.15-0.02-0.21-0.07
		l-6.87-7.11l1.38,6.97l0.79-0.16c0.09-0.02,0.17,0.03,0.19,0.13l0.19,0.97c0.02,0.09-0.03,0.17-0.13,0.19l-3.01,0.59
		c-0.09,0.02-0.17-0.03-0.19-0.13l-0.19-0.97c-0.02-0.09,0.03-0.17,0.13-0.19l0.79-0.15l-1.66-8.42l-0.79,0.16
		c-0.09,0.02-0.17-0.03-0.19-0.13l-0.19-0.97c-0.02-0.09,0.03-0.17,0.13-0.19l2.92-0.58c0.08-0.02,0.15,0.02,0.21,0.07l5.54,5.74
		L50,14.16l-0.79,0.15C49.12,14.33,49.04,14.28,49.02,14.19z"/>
	<path class="st0" d="M64.7,12.51l-0.59,0.05l-2.56,5.27l0.3,3.52l0.8-0.07c0.1-0.01,0.16,0.05,0.17,0.15l0.08,0.99
		c0.01,0.1-0.05,0.17-0.15,0.17l-3.99,0.33c-0.1,0.01-0.17-0.05-0.17-0.15l-0.08-0.99c-0.01-0.1,0.05-0.16,0.15-0.17l0.8-0.07
		l-0.29-3.48l-3.42-4.82l-0.59,0.05c-0.1,0.01-0.17-0.05-0.17-0.15l-0.08-0.99c-0.01-0.1,0.05-0.17,0.15-0.17l3.99-0.34
		c0.1-0.01,0.17,0.05,0.17,0.15l0.08,0.99c0.01,0.1-0.05,0.17-0.15,0.17l-0.81,0.07l2.41,3.47l1.81-3.83l-0.73,0.06
		c-0.1,0.01-0.16-0.05-0.17-0.15l-0.08-0.99c-0.01-0.1,0.05-0.17,0.15-0.17l2.89-0.24c0.1-0.01,0.17,0.05,0.17,0.15l0.08,0.99
		C64.86,12.43,64.8,12.5,64.7,12.51z"/>
	<path class="st0" d="M65.96,21.34c-0.01-0.7,0.6-1.31,1.3-1.32c0.72-0.01,1.36,0.56,1.37,1.27c0.02,0.72-0.6,1.32-1.32,1.34
		C66.61,22.64,65.97,22.06,65.96,21.34z"/>
	<path class="st0" d="M85.61,12.17l-0.07,0.99c-0.01,0.1-0.08,0.16-0.17,0.15l-0.61-0.04l-3.26,9.55c-0.02,0.08-0.09,0.14-0.18,0.13
		l-2.24-0.15c-0.1-0.01-0.16-0.07-0.17-0.16l-1.5-7.6l-2.59,7.33c-0.02,0.08-0.09,0.12-0.18,0.12l-2.27-0.16
		c-0.1-0.01-0.16-0.07-0.17-0.16l-1.92-9.9l-0.59-0.04c-0.1-0.01-0.16-0.08-0.15-0.17l0.07-0.99c0.01-0.1,0.08-0.15,0.17-0.15
		l3.75,0.26c0.1,0.01,0.16,0.08,0.15,0.17l-0.07,0.99c-0.01,0.1-0.07,0.16-0.17,0.15l-0.85-0.06l1.38,8.01l3.1-8.87
		c0.02-0.08,0.09-0.14,0.19-0.13l1.5,0.1c0.1,0.01,0.16,0.07,0.17,0.16l1.73,9.18l2.57-7.72l-0.78-0.05
		c-0.1-0.01-0.16-0.08-0.15-0.17l0.07-0.99c0.01-0.1,0.07-0.16,0.17-0.15l2.92,0.2C85.56,12,85.62,12.07,85.61,12.17z"/>
	<path class="st0" d="M86.91,18.02c0.65-3.15,3.51-5.27,6.38-4.68c2.87,0.59,4.65,3.67,4,6.82c-0.65,3.15-3.5,5.27-6.37,4.68
		C88.06,24.25,86.26,21.17,86.91,18.02z M94.69,19.62c0.6-2.93-0.42-4.74-1.67-5c-1.25-0.26-2.9,1-3.5,3.93
		c-0.6,2.93,0.42,4.74,1.67,5C92.44,23.81,94.09,22.55,94.69,19.62z"/>
	<path class="st0" d="M106.73,27.62l0.75,0.24c0.09,0.03,0.13,0.11,0.1,0.2L107.27,29c-0.03,0.09-0.11,0.13-0.2,0.1l-2.45-0.8
		c-0.08-0.03-0.13-0.08-0.13-0.18l-0.59-6.06l-1.08-0.35l-1.36,4.18l0.76,0.25c0.09,0.03,0.13,0.11,0.1,0.2l-0.31,0.94
		c-0.03,0.09-0.11,0.13-0.2,0.1l-3.8-1.24c-0.09-0.03-0.13-0.11-0.1-0.2l0.31-0.94c0.03-0.09,0.11-0.13,0.2-0.1l0.76,0.25l2.65-8.16
		l-0.76-0.25c-0.09-0.03-0.13-0.11-0.1-0.2l0.31-0.94c0.03-0.09,0.11-0.13,0.2-0.1l5.45,1.77c1.87,0.61,3.1,2.12,2.57,3.73
		c-0.43,1.31-1.77,1.88-3.28,1.71L106.73,27.62z M103.23,20.47l1.93,0.63c0.81,0.26,1.75,0.2,2.08-0.82c0.34-1.04-0.39-1.64-1.2-1.9
		l-1.93-0.63L103.23,20.47z"/>
	<path class="st0" d="M116.61,29.65c0.49-0.36,1.05,0.12,0.85,0.57l-1.21,2.72c-0.04,0.09-0.12,0.12-0.21,0.08l-6.95-3.08
		c-0.09-0.04-0.12-0.12-0.08-0.21l0.4-0.91c0.04-0.09,0.12-0.12,0.21-0.08l0.73,0.32l3.47-7.84l-0.73-0.33
		c-0.09-0.04-0.12-0.12-0.08-0.21l0.4-0.91c0.04-0.09,0.12-0.12,0.21-0.08l3.66,1.62c0.09,0.04,0.12,0.12,0.08,0.21l-0.4,0.91
		c-0.04,0.09-0.12,0.12-0.21,0.08l-0.73-0.32l-3.47,7.84l0.82,0.36c1.07,0.47,1.5,0.49,2.29-0.07L116.61,29.65z"/>
	<path class="st0" d="M129.4,34.04c-1.54,2.68-4.6,3.82-7.2,2.33l-4.19-2.4c-0.08-0.05-0.11-0.14-0.06-0.22l0.49-0.86
		c0.05-0.08,0.14-0.11,0.22-0.06l0.69,0.4l4.26-7.44l-0.69-0.4c-0.08-0.05-0.11-0.13-0.06-0.22l0.49-0.86
		c0.05-0.08,0.14-0.11,0.22-0.06l4.26,2.44C130.4,28.16,130.94,31.36,129.4,34.04z M127.09,32.71c1.39-2.43,1.19-4.26-0.26-5.09
		l-1.12-0.64l-4.26,7.44l1.12,0.64C124.01,35.89,125.69,35.14,127.09,32.71z"/>
</g>
<g>
</g>
</svg>
